<?xml version="1.0" encoding="UTF-8"?>
<!DOCTYPE svg PUBLIC "-//W3C//DTD SVG 1.1//EN" "http://www.w3.org/Graphics/SVG/1.1/DTD/svg11.dtd">
<svg version="1.1" xmlns="http://www.w3.org/2000/svg" xmlns:xlink="http://www.w3.org/1999/xlink" x="0" y="0" width="331.495" height="325" viewBox="0, 0, 331.495, 325">
  <g id="Layer_2" transform="translate(-79, -358.115)">
    <g>
      <path d="M116.5,383.615 L373.995,383.615 C380.623,383.615 385.995,388.987 385.995,395.615 L385.995,646.615 C385.995,653.242 380.623,658.615 373.995,658.615 L116.5,658.615 C109.873,658.615 104.5,653.242 104.5,646.615 L104.5,395.615 C104.5,388.987 109.873,383.615 116.5,383.615 z" fill="#FFFFFF"/>
      <path d="M116.5,383.615 L373.995,383.615 C380.623,383.615 385.995,388.987 385.995,395.615 L385.995,646.615 C385.995,653.242 380.623,658.615 373.995,658.615 L116.5,658.615 C109.873,658.615 104.5,653.242 104.5,646.615 L104.5,395.615 C104.5,388.987 109.873,383.615 116.5,383.615 z" fill-opacity="0" stroke="#000000" stroke-width="12"/>
    </g>
    <g>
      <path d="M224.004,418.525 C224.004,418.525 208.396,418.525 206.505,417.106 C204.613,415.688 200.187,409.309 198.137,407.732 C196.088,406.156 192.462,403.161 189.151,402.372 C185.841,401.584 184.516,402.503 183.886,403.099 C182.041,404.841 179.567,404.65 176.65,405.602 C173.884,406.503 171.324,407.33 169.104,409.256 C166.885,411.182 164.764,413.084 163.953,416.001 C163.143,418.918 162.572,421.582 162.572,423.548 C162.572,425.818 162.636,429.445 163.184,433.136 C163.485,435.163 164.558,438.316 164.085,439.262 C163.612,440.208 160.459,442.888 159.829,446.357 C159.198,449.825 159.198,450.613 159.198,450.613 C159.198,450.613 158.41,454.554 161.405,455.5 C164.4,456.446 174.648,464.644 175.909,465.274 C177.17,465.905 180.954,467.009 182.057,467.797 C183.161,468.585 190.413,473.788 191.359,475.679 C192.304,477.571 190.886,485.769 192.304,489.552 C193.723,493.336 200.029,499.484 200.029,499.484 C200.029,499.484 181.427,509.259 178.589,512.254 C175.751,515.249 167.238,526.758 164.4,532.276 C161.563,537.793 153.68,549.302 152.419,553.085 C151.158,556.869 150.37,562.229 149.424,563.017 C148.478,563.805 141.384,574.466 141.384,572.003 C141.384,571.846 137.442,576.417 133.974,578.309 C130.506,580.201 124.673,582.723 124.673,586.034 C124.673,589.345 126.092,592.971 130.348,593.443 C134.605,593.916 138.704,591.867 143.433,585.876 C148.163,579.886 154.311,572.949 156.518,572.161 C158.725,571.373 164.4,570.742 164.4,570.742 C164.4,570.742 166.135,575.944 165.504,581.305 C164.873,586.665 164.4,591.552 164.4,593.128 C164.4,594.705 164.4,596.439 164.4,597.7 C164.4,598.961 162.666,605.583 163.927,608.42 C165.189,611.258 168.342,611.573 169.288,611.258 C170.233,610.943 176.224,607.947 176.066,603.848 C175.909,599.749 174.805,592.498 175.121,587.453 C175.436,582.408 179.219,562.859 182.215,559.549 C185.21,556.238 189.151,556.869 190.728,558.288 C192.304,559.706 198.453,568.693 199.714,570.9 C200.975,573.107 204.916,577.048 208.069,574.998 C211.222,572.949 212.956,568.85 212.168,566.643 C211.38,564.436 202.709,555.923 201.763,554.504 C200.817,553.085 197.192,542.68 197.192,542.68 C197.192,542.68 206.966,541.419 210.276,541.262 C213.587,541.104 221.785,543.153 222.888,541.892 C223.992,540.631 223.834,537.478 223.834,537.478 C223.834,537.478 217.055,534.483 215.794,533.379 C214.533,532.275 201.763,533.221 199.872,532.591 C197.98,531.96 194.984,530.226 194.827,529.595 C194.669,528.965 204.916,526.442 207.439,525.024 C209.961,523.605 215.794,520.767 215.794,520.767 C215.794,520.767 224.307,533.221 228.091,535.901 C231.874,538.581 246.536,540.631 249.531,541.734 C252.526,542.838 264.981,550.405 264.981,550.405 C264.981,550.405 284.056,554.662 284.056,554.662 C284.056,554.662 279.327,560.968 278.066,561.914 C276.805,562.859 272.706,566.958 272.706,566.958 C272.706,566.958 271.444,563.332 272.706,562.071 C273.967,560.81 276.962,558.445 277.277,557.815 C277.593,557.184 278.696,555.608 277.12,555.135 C275.543,554.662 270.971,553.401 268.134,555.45 C265.296,557.499 260.409,565.067 260.409,565.067 C260.409,565.067 261.197,574.526 259.305,576.102 C257.414,577.679 249.058,581.62 245.59,581.62 C242.122,581.62 230.456,578.309 228.248,577.994 C226.041,577.679 217.686,577.521 217.844,583.196 C218.001,588.872 224.623,589.975 226.199,590.133 C227.776,590.29 233.451,588.556 236.131,589.345 C238.811,590.133 244.959,593.443 244.959,593.286 C244.959,593.128 241.649,597.542 240.545,601.799 C239.442,606.055 237.234,613.623 235.658,615.83 C234.082,618.037 226.357,627.653 226.357,630.806 C226.357,633.959 226.514,639.162 232.032,639.162 C237.55,639.162 240.86,634.748 241.018,632.383 C241.176,630.018 242.279,624.5 243.698,621.663 C245.117,618.825 249.846,613.623 249.846,613.623 C249.846,613.623 253.63,612.677 253.63,612.677 C253.63,612.677 259.305,617.406 261.67,618.983 C264.035,620.559 274.913,629.545 277.12,631.122 C279.327,632.698 286.106,637.585 287.84,638.058 C289.574,638.531 292.727,639.004 292.885,636.955 C293.042,634.905 292.885,632.068 288.786,628.757 C284.687,625.446 277.277,620.402 276.805,619.771 C276.332,619.14 273.652,606.371 274.755,604.637 C275.859,602.902 275.386,600.065 277.75,598.015 C280.115,595.966 297.457,581.62 299.979,579.728 C302.501,577.836 311.645,569.638 311.645,569.638 C311.645,569.638 317.32,572.476 322.996,570.9 C328.671,569.323 335.45,572.476 336.081,572.791 C336.711,573.107 338.288,574.526 338.288,574.526 C338.288,574.526 330.721,582.881 328.198,584.93 C325.676,586.98 319.843,593.916 319.843,593.916 C319.843,593.916 311.96,597.227 312.118,599.434 C312.276,601.641 316.847,605.74 321.419,604.006 C325.991,602.272 331.667,593.916 334.031,591.709 C336.396,589.502 345.855,582.408 347.116,582.408 C348.377,582.408 356.102,580.989 358.309,583.669 C360.516,586.349 360.832,592.498 360.516,594.705 C360.201,596.912 357.679,600.065 361.305,601.168 C364.931,602.272 369.975,602.272 371.709,599.592 C373.444,596.912 374.232,583.984 374.232,583.984 C374.232,583.984 381.495,587.137 381.495,587.137 C381.495,587.137 381.495,582.093 381.495,582.093 C381.495,582.093 381.495,524.977 381.495,524.977 C381.495,524.977 376.294,520.292 370.939,523.973 C365.584,527.655 360.898,543.72 360.898,543.72 C360.898,543.72 355.208,505.231 340.147,492.847 C325.086,480.464 312.368,470.088 304.001,463.729 C295.634,457.37 292.287,450.341 287.601,445.991 C282.915,441.64 272.875,434.276 272.875,434.276 C272.875,434.276 274.214,416.538 259.152,410.179 C244.091,403.82 237.398,409.175 235.055,410.848 C232.712,412.522 223.663,418.839 224.004,418.525 z" fill="#000000"/>
      <path d="M162.092,450.007 C162.092,450.007 169.527,447.051 169.527,447.051 C169.527,447.051 173.208,451.162 175.216,451.162 C177.224,451.162 206.012,457.431 210.028,458.1 C214.044,458.77 238.492,465.159 244.763,466.613 C258.457,469.787 273.767,469.215 274.197,469.358 C274.626,469.501 275.552,470.088 275.552,470.088 C275.552,470.088 266.516,470.423 262.499,470.423 C258.483,470.423 241.749,467.745 241.749,467.745 C241.749,467.745 217.316,460.717 210.288,459.713 C203.259,458.709 180.298,453.496 176.804,453.158 C173.309,452.82 169.302,449.039 169.302,449.039 C169.302,449.039 162.427,450.341 162.092,450.007 z" fill="#FFE908"/>
      <g>
        <path d="M252.21,411.808 C248.1,411.479 240.735,412.8 236.591,415.425 C231.166,418.861 225.741,429.07 228.536,437.126 C231.33,445.182 236.098,449.456 245.798,450.936 C255.498,452.416 265.198,448.47 267.828,443.209 C270.459,437.948 271.938,427.262 267.664,421.508 C263.389,415.753 256.32,412.136 252.21,411.808 z" fill="#FFE908"/>
        <path d="M252.21,411.808 C248.1,411.479 240.735,412.8 236.591,415.425 C231.166,418.861 225.741,429.07 228.536,437.126 C231.33,445.182 236.098,449.456 245.798,450.936 C255.498,452.416 265.198,448.47 267.828,443.209 C270.459,437.948 271.938,427.262 267.664,421.508 C263.389,415.753 256.32,412.136 252.21,411.808 z" fill-opacity="0" stroke="#000000" stroke-width="1"/>
      </g>
      <path d="M249.388,418.377 C249.388,418.377 239.215,419.199 238.393,428.57 C237.571,437.941 247.6,441.723 247.6,441.723 C247.6,441.723 253.847,437.448 254.669,430.379 C255.567,422.66 249.039,418.048 249.388,418.377 z" fill="#000000"/>
      <path d="M183.186,405.953 C183.186,405.953 169.217,407.825 166.049,416.898 C166.049,416.898 166.049,416.898 166.049,416.898 C162.881,425.97 165.732,436.18 165.732,436.18 C165.732,436.18 166.426,437.09 166.564,436.827 C167.494,435.051 170.657,428.562 170.657,428.562 C170.657,428.562 178.001,425.682 178.001,425.682 C178.001,425.682 184.482,405.953 184.482,405.953 C184.482,405.953 182.754,405.953 183.186,405.953 z" fill="#FFE908"/>
      <path d="M167.044,432.055 C167.044,432.055 169.899,424.106 171.307,420.587 C172.714,417.069 175.178,412.677 175.178,412.677 C175.178,412.677 174.914,410.471 175.002,409.943 C175.09,409.415 168.932,412.582 167.7,416.365 C166.468,420.148 165.765,422.787 165.853,425.69 C165.915,427.737 166.409,430.327 166.664,431.646 C166.771,432.198 167.07,432.081 167.044,432.055 z" fill="#000000"/>
    </g>
  </g>
</svg>
